<svg width="16" height="16" viewBox="0 0 16 16" fill="none" xmlns="http://www.w3.org/2000/svg">
<path d="M12.6667 2H3.33333C2.598 2 2 2.598 2 3.33333V12.6667C2 13.402 2.598 14 3.33333 14H8.66667C8.75423 14.0001 8.84095 13.9829 8.92184 13.9494C9.00273 13.9159 9.0762 13.8667 9.138 13.8047L13.8047 9.138C13.8595 9.08117 13.9037 9.01502 13.9353 8.94267C13.9447 8.92267 13.95 8.902 13.9573 8.88067C13.9763 8.82488 13.9878 8.76681 13.9913 8.708C13.9927 8.694 14 8.68067 14 8.66667V3.33333C14 2.598 13.402 2 12.6667 2ZM3.33333 3.33333H12.6667V8H8.66667C8.48986 8 8.32029 8.07024 8.19526 8.19526C8.07024 8.32029 8 8.48986 8 8.66667V12.6667H3.33333V3.33333ZM9.33333 11.724V9.33333H11.724L9.33333 11.724Z" fill="#E9E3F0"/>
</svg>
