<svg width="12" height="12" viewBox="0 0 12 12" fill="none" xmlns="http://www.w3.org/2000/svg">
<path d="M7.125 9.75C7.125 10.0484 7.00647 10.3345 6.7955 10.5455C6.58452 10.7565 6.29837 10.875 6 10.875C5.70163 10.875 5.41548 10.7565 5.2045 10.5455C4.99353 10.3345 4.875 10.0484 4.875 9.75C4.875 9.45163 4.99353 9.16548 5.2045 8.9545C5.41548 8.74353 5.70163 8.625 6 8.625C6.29837 8.625 6.58452 8.74353 6.7955 8.9545C7.00647 9.16548 7.125 9.45163 7.125 9.75ZM7.125 6C7.125 6.29837 7.00647 6.58452 6.7955 6.7955C6.58452 7.00647 6.29837 7.125 6 7.125C5.70163 7.125 5.41548 7.00647 5.2045 6.7955C4.99353 6.58452 4.875 6.29837 4.875 6C4.875 5.70163 4.99353 5.41548 5.2045 5.2045C5.41548 4.99353 5.70163 4.875 6 4.875C6.29837 4.875 6.58452 4.99353 6.7955 5.2045C7.00647 5.41548 7.125 5.70163 7.125 6ZM7.125 2.25C7.125 2.54837 7.00647 2.83452 6.7955 3.0455C6.58452 3.25647 6.29837 3.375 6 3.375C5.70163 3.375 5.41548 3.25647 5.2045 3.0455C4.99353 2.83452 4.875 2.54837 4.875 2.25C4.875 1.95163 4.99353 1.66548 5.2045 1.4545C5.41548 1.24353 5.70163 1.125 6 1.125C6.29837 1.125 6.58452 1.24353 6.7955 1.4545C7.00647 1.66548 7.125 1.95163 7.125 2.25Z" fill="#E9E3F0"/>
</svg>
